<svg xmlns="http://www.w3.org/2000/svg" width="600" height="600" viewBox="0 0 600 600">
<rect width="600" height="600" fill="#101317"/>

<!-- Layer 1: Deep Camo Olive -->
<g fill="#1b2318">
  <path d="M0,60 C50,20 120,40 160,80 C200,120 180,180 130,200 C80,220 30,190 0,160 Z"/>
  <path d="M320,20 C380,-10 450,10 490,60 C530,110 500,170 440,180 C380,190 320,150 300,100 C280,50 280,30 320,20 Z"/>
  <path d="M120,320 C180,280 260,300 300,360 C340,420 310,490 240,500 C170,510 110,470 90,410 C70,350 80,330 120,320 Z"/>
  <path d="M420,340 C480,300 550,320 590,370 C630,420 600,490 540,510 C480,530 410,490 390,430 C370,370 380,350 420,340 Z"/>
  <path d="M-20,420 C30,390 80,410 100,460 C120,510 90,560 40,580 C-10,600 -40,570 -50,520 Z"/>
  <path d="M520,20 C570,0 620,20 630,70 C640,120 600,160 550,150 C500,140 480,90 490,50 Z"/>
</g>

<!-- Layer 2: Muted Tactical Slate / Dark Armor -->
<g fill="#171c23">
  <path d="M160,30 C220,10 280,40 310,90 C340,140 310,200 250,210 C190,220 140,180 130,130 C120,80 130,40 160,30 Z"/>
  <path d="M460,110 C520,80 580,120 600,170 C620,220 580,280 520,290 C460,300 410,250 400,200 C390,150 420,120 460,110 Z"/>
  <path d="M20,220 C80,190 140,220 170,270 C200,320 180,380 120,400 C60,420 10,380 -10,330 C-30,280 -10,230 20,220 Z"/>
  <path d="M280,420 C340,380 420,410 450,470 C480,530 450,600 380,610 C310,620 250,570 240,510 C230,450 250,430 280,420 Z"/>
  <path d="M500,480 C560,450 620,480 640,540 C660,600 620,650 560,660 C500,670 450,620 450,560 C450,510 470,490 500,480 Z"/>
</g>

<!-- Layer 3: Military Olive Drab -->
<g fill="#222a1c">
  <path d="M60,90 C110,60 170,90 190,140 C210,190 180,240 130,250 C80,260 30,220 20,170 C10,120 30,100 60,90 Z"/>
  <path d="M380,80 C430,50 500,70 530,120 C560,170 530,230 470,240 C410,250 360,210 350,160 C340,110 350,90 380,80 Z"/>
  <path d="M190,260 C250,220 320,250 350,310 C380,370 350,430 290,440 C230,450 170,410 160,350 C150,290 160,270 190,260 Z"/>
  <path d="M-10,480 C40,450 110,480 130,530 C150,580 120,640 60,650 C0,660 -40,620 -50,570 Z"/>
  <path d="M370,510 C420,470 490,500 520,550 C550,600 520,660 460,670 C400,680 340,640 330,590 C320,540 340,520 370,510 Z"/>
</g>

<!-- Layer 4: Deep Woodland Forest -->
<g fill="#1e261a">
  <path d="M90,120 C130,90 180,120 190,160 C200,200 170,240 130,240 C90,240 60,200 60,160 C60,130 70,120 90,120 Z"/>
  <path d="M420,120 C460,90 520,110 540,150 C560,190 530,230 490,240 C450,250 410,220 400,180 C390,140 400,120 420,120 Z"/>
  <path d="M230,300 C280,270 340,290 360,340 C380,390 350,440 300,450 C250,460 210,420 200,370 C190,320 210,310 230,300 Z"/>
  <path d="M480,390 C530,360 580,390 600,440 C620,490 590,540 540,550 C490,560 450,520 450,470 C450,420 460,400 480,390 Z"/>
  <path d="M20,530 C60,500 120,520 130,570 C140,620 100,660 60,660 C20,660 -10,620 -10,570 Z"/>
</g>

<!-- Layer 5: Subdued Camo Khaki / Muted Drab Accent -->
<g fill="#2b3523">
  <path d="M110,140 C140,120 170,140 180,170 C190,200 160,230 130,230 C100,230 80,200 80,170 C80,150 90,140 110,140 Z"/>
  <path d="M440,130 C470,110 510,120 520,150 C530,180 510,210 480,220 C450,230 420,200 420,170 C420,140 430,130 440,130 Z"/>
  <path d="M250,320 C280,300 320,310 340,340 C360,370 340,410 300,420 C260,430 230,400 230,370 C230,340 240,320 250,320 Z"/>
  <path d="M500,410 C530,390 570,410 580,440 C590,470 570,510 530,510 C490,510 470,480 470,450 C470,420 480,410 500,410 Z"/>
</g>
</svg>